<?xml version="1.0" standalone="no"?>
<!DOCTYPE svg PUBLIC "-//W3C//DTD SVG 20010904//EN"
 "http://www.w3.org/TR/2001/REC-SVG-20010904/DTD/svg10.dtd">
<svg version="1.0" xmlns="http://www.w3.org/2000/svg"
 width="512.000000pt" height="512.000000pt" viewBox="0 0 512.000000 512.000000"
 preserveAspectRatio="xMidYMid meet">

<g transform="translate(0.000000,512.000000) scale(0.100000,-0.100000)"
fill="#000000" stroke="none">
<path d="M1835 4246 c-103 -46 -153 -179 -106 -281 10 -22 280 -345 600 -717
319 -373 581 -682 581 -688 0 -6 -261 -315 -581 -688 -319 -372 -589 -694
-600 -714 -35 -69 -20 -179 34 -236 37 -40 97 -66 153 -66 108 -1 77 -32 803
814 365 426 670 789 677 807 8 18 14 55 14 83 0 28 -6 65 -14 83 -7 18 -312
381 -678 808 -728 849 -689 809 -801 809 -28 -1 -65 -7 -82 -14z"/>
</g>
</svg>
