<?xml version="1.0" standalone="no"?>
<!DOCTYPE svg PUBLIC "-//W3C//DTD SVG 20010904//EN"
 "http://www.w3.org/TR/2001/REC-SVG-20010904/DTD/svg10.dtd">
<svg version="1.0" xmlns="http://www.w3.org/2000/svg"
 width="512.000000pt" height="512.000000pt" viewBox="0 0 512.000000 512.000000"
 preserveAspectRatio="xMidYMid meet">

<g transform="translate(0.000000,512.000000) scale(0.100000,-0.100000)"
fill="#000000" stroke="none">
<path d="M1080 5115 c-8 -2 -49 -9 -90 -15 -232 -38 -459 -157 -636 -334 -169
-170 -279 -370 -330 -606 -18 -81 -19 -159 -19 -1595 0 -1638 -3 -1556 56
-1737 58 -179 155 -335 293 -474 139 -138 295 -235 474 -293 174 -57 165 -56
982 -56 699 0 761 1 840 19 482 105 845 476 941 961 9 46 14 141 14 276 l0
205 -27 41 c-41 62 -90 88 -168 88 -78 0 -127 -26 -168 -88 -26 -39 -27 -45
-33 -241 -7 -204 -14 -248 -59 -368 -66 -177 -261 -372 -438 -438 -151 -57
-113 -54 -862 -58 -747 -4 -783 -2 -921 47 -202 72 -398 259 -469 449 -59 156
-55 42 -55 1662 0 1620 -4 1506 55 1662 71 191 266 377 469 449 138 49 174 51
921 47 610 -3 702 -6 750 -20 219 -65 367 -172 481 -346 94 -144 119 -242 128
-498 6 -196 7 -202 33 -241 41 -62 90 -88 168 -88 78 0 127 26 168 88 l27 41
0 205 c0 135 -5 230 -14 276 -95 479 -442 840 -921 958 -82 20 -112 21 -830
23 -410 1 -752 1 -760 -1z"/>
<path d="M4272 3469 c-48 -14 -109 -80 -123 -131 -14 -53 -5 -120 21 -162 10
-17 130 -139 266 -271 257 -249 283 -283 284 -358 0 -74 -23 -104 -295 -377
-232 -234 -264 -270 -275 -310 -43 -159 91 -293 250 -250 40 11 76 43 308 273
286 284 342 355 383 478 31 97 34 264 5 349 -49 146 -74 178 -359 460 -148
146 -281 273 -297 283 -35 22 -122 30 -168 16z"/>
<path d="M1902 2749 c-47 -14 -109 -79 -123 -131 -23 -89 12 -182 88 -229 l38
-24 1146 0 1145 0 41 27 c63 41 88 90 88 169 0 54 -5 72 -27 106 -15 22 -44
51 -65 64 l-38 24 -1130 2 c-695 1 -1143 -2 -1163 -8z"/>
</g>
</svg>
