<?xml version="1.0" standalone="no"?>
<!DOCTYPE svg PUBLIC "-//W3C//DTD SVG 20010904//EN"
 "http://www.w3.org/TR/2001/REC-SVG-20010904/DTD/svg10.dtd">
<svg version="1.0" xmlns="http://www.w3.org/2000/svg"
 width="512.000000pt" height="512.000000pt" viewBox="0 0 512.000000 512.000000"
 preserveAspectRatio="xMidYMid meet">

<g transform="translate(0.000000,512.000000) scale(0.100000,-0.100000)"
fill="#000000" stroke="none">
<path d="M1502 5107 c-48 -18 -99 -63 -125 -110 -20 -39 -22 -55 -22 -222 0
-205 6 -233 65 -294 70 -72 58 -71 805 -71 706 0 716 1 784 49 17 12 43 43 58
69 28 47 28 48 28 237 0 177 -1 193 -22 232 -27 51 -82 96 -132 112 -55 16
-1393 14 -1439 -2z m1423 -162 c24 -23 25 -28 25 -169 0 -155 -7 -187 -47
-205 -17 -8 -221 -11 -683 -11 l-659 0 -28 24 c-28 24 -28 25 -31 161 -4 152
-1 176 28 205 20 20 36 20 695 20 l676 0 24 -25z"/>
<path d="M514 4819 c-67 -26 -132 -83 -169 -150 l-30 -54 -3 -2177 -2 -2177
21 -57 c26 -69 91 -138 164 -174 l50 -25 1285 -3 c966 -2 1290 0 1307 9 46 24
45 115 -2 133 -9 3 -585 6 -1279 6 l-1263 0 -44 23 c-27 15 -52 38 -66 63
l-23 39 3 2155 2 2155 23 33 c13 18 41 41 62 52 36 18 60 20 293 20 242 0 256
1 281 21 33 26 36 79 6 109 -19 19 -33 20 -292 19 -247 0 -278 -2 -324 -20z"/>
<path d="M3322 4817 c-27 -29 -28 -67 -3 -98 19 -24 20 -24 293 -29 l275 -5
36 -28 c78 -59 72 52 75 -1304 l2 -1212 27 -20 c14 -12 32 -21 39 -21 26 0 62
23 73 47 15 32 16 2346 1 2423 -22 115 -100 210 -206 249 -50 19 -77 21 -323
21 -267 0 -268 0 -289 -23z"/>
<path d="M960 4030 c-30 -30 -27 -83 6 -109 26 -21 34 -21 656 -21 l629 0 24
25 c32 31 33 74 2 103 l-23 22 -637 0 c-624 0 -637 0 -657 -20z"/>
<path d="M957 3222 c-24 -27 -22 -85 4 -108 21 -18 56 -19 1265 -19 l1243 0
22 22 c27 27 29 75 4 103 -18 20 -28 20 -1270 20 -1200 0 -1253 -1 -1268 -18z"/>
<path d="M966 2629 c-34 -27 -36 -79 -4 -109 22 -20 28 -20 1261 -20 773 0
1245 4 1256 10 10 5 24 22 30 39 14 32 3 64 -28 88 -12 10 -296 12 -1252 13
-1236 0 -1236 0 -1263 -21z"/>
<path d="M960 2030 c-27 -27 -26 -81 1 -106 21 -18 56 -19 1265 -19 l1243 0
22 22 c27 27 29 75 4 103 -18 20 -28 20 -1267 20 -1235 0 -1248 0 -1268 -20z"/>
<path d="M3679 1914 c-289 -52 -558 -253 -689 -514 -73 -144 -101 -267 -101
-435 0 -277 97 -504 298 -696 473 -451 1243 -312 1528 276 75 155 90 223 90
420 0 147 -3 181 -23 250 -139 485 -616 788 -1103 699z m371 -159 c267 -70
479 -268 572 -535 32 -92 33 -100 33 -255 0 -155 -1 -163 -33 -255 -206 -591
-944 -751 -1370 -296 -286 306 -286 796 0 1102 116 124 266 210 428 245 102
23 269 20 370 -6z"/>
<path d="M3422 1390 c-14 -13 -22 -33 -22 -53 0 -28 21 -53 172 -204 l173
-173 -173 -173 c-148 -149 -172 -178 -172 -204 0 -38 26 -70 63 -79 26 -6 41
7 208 172 l179 179 174 -174 c152 -151 179 -174 206 -174 41 0 73 32 73 73 0
27 -23 54 -174 206 l-174 174 174 174 c154 154 174 178 174 207 0 39 -32 69
-76 69 -26 0 -55 -24 -204 -172 l-173 -172 -173 172 c-147 146 -178 172 -203
172 -17 0 -40 -9 -52 -20z"/>
<path d="M967 1439 c-34 -26 -37 -79 -7 -109 20 -20 33 -20 880 -20 l861 0 26
26 c20 20 24 31 19 57 -13 66 50 62 -895 65 -857 2 -858 2 -884 -19z"/>
</g>
</svg>
