<?xml version="1.0" standalone="no"?>
<!DOCTYPE svg PUBLIC "-//W3C//DTD SVG 20010904//EN"
 "http://www.w3.org/TR/2001/REC-SVG-20010904/DTD/svg10.dtd">
<svg version="1.0" xmlns="http://www.w3.org/2000/svg"
 width="512.000000pt" height="512.000000pt" viewBox="0 0 512.000000 512.000000"
 preserveAspectRatio="xMidYMid meet">

<g transform="translate(0.000000,512.000000) scale(0.100000,-0.100000)"
fill="#000000" stroke="none">
<path d="M2082 5100 c-166 -44 -318 -164 -392 -310 -50 -99 -62 -150 -67 -292
l-6 -137 -447 -3 -446 -3 -42 -28 c-67 -44 -102 -134 -81 -211 15 -58 52 -102
110 -131 l49 -25 0 -1633 c0 -1779 -2 -1692 58 -1835 95 -227 293 -398 542
-469 61 -17 128 -18 1200 -18 l1135 0 78 23 c235 68 426 232 522 448 63 142
84 337 45 415 -57 111 -210 141 -304 59 -46 -41 -64 -83 -75 -179 -17 -154
-114 -289 -248 -343 l-58 -23 -1095 0 -1095 0 -58 23 c-81 33 -168 116 -209
200 l-33 67 -3 1632 -2 1633 1400 0 1399 0 3 -1107 c3 -1230 -2 -1131 70
-1200 41 -39 76 -53 134 -53 74 0 158 56 183 123 8 19 11 377 11 1132 l0 1104
52 28 c57 30 92 74 108 134 22 79 -26 181 -102 218 -43 20 -56 21 -481 21
l-437 0 0 108 c0 320 -176 558 -468 633 -68 17 -111 19 -476 18 -362 0 -408
-2 -474 -19z m868 -390 c49 -13 109 -66 131 -114 14 -31 19 -65 19 -138 l0
-98 -540 0 -540 0 0 98 c0 73 5 107 19 138 21 46 81 100 126 113 42 13 741 13
785 1z"/>
<path d="M1702 3199 c-26 -13 -55 -39 -70 -62 l-27 -41 0 -917 0 -917 31 -39
c38 -48 106 -83 159 -83 92 1 175 70 194 163 8 37 11 309 9 913 l-3 861 -30
48 c-56 90 -167 121 -263 74z"/>
<path d="M2475 3203 c-48 -25 -83 -63 -100 -107 -14 -36 -15 -147 -13 -931 l3
-890 24 -38 c13 -21 42 -50 64 -65 34 -23 52 -27 107 -27 55 0 73 4 107 27 22
15 51 44 64 65 l24 38 3 885 c2 611 0 896 -8 922 -14 48 -53 94 -101 118 -47
24 -132 26 -174 3z"/>
<path d="M3230 3198 c-30 -16 -55 -41 -75 -73 l-30 -48 -3 -861 c-2 -604 1
-876 9 -913 19 -93 102 -162 194 -163 53 0 121 35 159 83 l31 39 3 905 2 906
-21 44 c-30 63 -85 96 -163 101 -50 3 -69 -1 -106 -20z"/>
</g>
</svg>
