<?xml version="1.0" standalone="no"?>
<!DOCTYPE svg PUBLIC "-//W3C//DTD SVG 20010904//EN"
 "http://www.w3.org/TR/2001/REC-SVG-20010904/DTD/svg10.dtd">
<svg version="1.0" xmlns="http://www.w3.org/2000/svg"
 width="512.000000pt" height="512.000000pt" viewBox="0 0 512.000000 512.000000"
 preserveAspectRatio="xMidYMid meet">

<g transform="translate(0.000000,512.000000) scale(0.100000,-0.100000)"
fill="#000000" stroke="none">
<path d="M4430 4639 c-14 -5 -149 -134 -300 -285 l-276 -275 -129 64 c-746
370 -1587 369 -2330 0 -421 -209 -779 -513 -1084 -920 -124 -165 -226 -330
-265 -426 -58 -145 -58 -329 0 -474 51 -126 215 -374 383 -578 107 -129 307
-325 444 -435 l118 -94 -250 -250 c-138 -138 -255 -264 -261 -279 -17 -47 -12
-101 13 -138 47 -69 121 -96 194 -69 15 6 296 278 629 612 l601 600 84 -50
c428 -257 968 -192 1319 158 207 207 315 473 313 770 -1 200 -51 376 -155 549
l-50 84 600 601 c334 333 606 614 612 629 27 73 0 147 -69 194 -36 25 -96 30
-141 12z m-1639 -549 c144 -15 333 -55 469 -100 104 -34 302 -116 340 -140 12
-8 -26 -51 -191 -216 l-206 -206 -84 50 c-181 109 -347 155 -559 154 -297 0
-552 -105 -759 -313 -208 -207 -313 -462 -313 -759 -1 -212 45 -378 154 -559
l50 -84 -235 -235 -236 -236 -93 71 c-256 196 -474 432 -671 728 -117 176
-132 212 -132 315 0 105 15 140 144 332 457 683 1123 1115 1846 1196 114 13
355 14 476 2z m-51 -797 c65 -15 172 -59 209 -85 19 -13 -13 -47 -504 -538
l-523 -523 -41 84 c-54 112 -74 200 -74 329 0 133 20 218 80 340 39 79 62 110
138 186 197 199 448 271 715 207z m521 -453 c39 -105 52 -173 52 -280 0 -131
-20 -215 -81 -340 -39 -80 -60 -109 -137 -186 -133 -135 -268 -201 -450 -224
-145 -18 -314 15 -446 86 l-50 28 523 523 523 523 22 -38 c13 -20 32 -62 44
-92z"/>
<path d="M4433 3491 c-48 -22 -79 -65 -88 -122 -9 -54 17 -103 126 -234 103
-124 259 -352 298 -435 22 -46 26 -69 26 -140 0 -103 -15 -139 -132 -315 -472
-708 -1135 -1135 -1888 -1216 -147 -16 -436 -5 -580 21 -140 25 -159 25 -207
-2 -109 -62 -109 -222 1 -277 127 -64 654 -91 934 -47 780 123 1446 551 1943
1250 99 140 185 287 215 366 32 87 45 205 31 305 -14 104 -47 190 -124 317
-108 178 -343 484 -401 523 -40 26 -106 28 -154 6z"/>
</g>
</svg>
