<?xml version="1.0" standalone="no"?>
<!DOCTYPE svg PUBLIC "-//W3C//DTD SVG 20010904//EN"
 "http://www.w3.org/TR/2001/REC-SVG-20010904/DTD/svg10.dtd">
<svg version="1.0" xmlns="http://www.w3.org/2000/svg"
 width="512.000000pt" height="512.000000pt" viewBox="0 0 512.000000 512.000000"
 preserveAspectRatio="xMidYMid meet">

<g transform="translate(0.000000,512.000000) scale(0.100000,-0.100000)"
fill="#000000" stroke="none">
<path d="M1052 4907 c-21 -22 -22 -32 -22 -215 0 -230 1 -232 100 -232 l60 0
0 -150 0 -150 -254 0 c-227 0 -256 -2 -275 -17 -20 -17 -21 -28 -23 -213 l-3
-194 -60 -21 c-92 -32 -143 -62 -203 -119 -69 -64 -124 -148 -154 -234 l-23
-67 0 -1435 0 -1435 24 -52 c29 -65 101 -134 166 -159 48 -18 88 -19 1000 -19
946 0 950 0 996 21 l45 21 21 -23 21 -24 1211 0 1210 0 21 27 c20 26 21 30 18
572 -3 546 -3 546 -26 597 -29 64 -92 126 -157 156 -50 23 -52 23 -558 26
l-508 3 6 32 c9 57 175 1691 175 1730 0 24 -7 44 -20 57 -20 20 -33 20 -667
20 l-648 0 -35 61 c-64 111 -204 220 -322 249 l-48 12 0 194 c0 186 -1 194
-22 214 -21 19 -34 20 -275 20 l-253 0 0 150 0 150 213 0 c248 0 247 0 247 87
0 129 -95 256 -223 298 -23 8 -150 26 -282 40 -132 14 -278 30 -325 35 -117
14 -124 13 -148 -13z m422 -157 c318 -35 353 -46 392 -122 l15 -28 -356 0
-355 0 0 90 c0 67 3 90 13 90 7 0 138 -14 291 -30z m-44 -440 l0 -150 -50 0
-50 0 0 150 0 150 50 0 50 0 0 -150z m550 -430 l0 -140 -600 0 -600 0 0 140 0
140 600 0 600 0 0 -140z m211 -317 c43 -21 84 -52 120 -90 l54 -58 -82 -5
c-102 -6 -119 -19 -116 -88 1 -26 61 -615 133 -1308 141 -1364 150 -1495 111
-1579 -21 -46 -54 -79 -94 -94 -19 -8 -318 -11 -938 -11 -741 0 -916 2 -942
14 -43 17 -95 78 -102 118 -3 18 -5 661 -3 1428 l3 1395 21 52 c47 114 142
204 256 244 50 18 97 18 783 16 l730 -2 66 -32z m1524 -315 c-2 -13 -16 -142
-30 -288 -14 -146 -28 -275 -31 -288 l-4 -22 -638 2 -637 3 -27 255 c-14 140
-29 279 -32 308 l-6 52 705 0 705 0 -5 -22z m-80 -775 c-7 -51 -75 -717 -75
-737 0 -14 -56 -16 -545 -16 -300 0 -545 2 -545 5 0 3 -18 179 -40 391 -22
213 -40 388 -40 390 0 2 281 4 625 4 l625 0 -5 -37z m-145 -907 c-105 -24
-182 -82 -231 -176 -23 -43 -24 -55 -27 -292 l-4 -248 -334 0 c-184 0 -334 1
-334 3 0 2 -16 156 -35 343 -19 186 -35 349 -35 362 l0 22 528 -1 c441 -1 518
-3 472 -13z m1187 -147 c57 -21 113 -95 113 -149 0 -20 -3 -20 -710 -20 -695
0 -710 0 -710 19 0 53 50 122 105 147 39 17 1157 20 1202 3z m113 -699 l0
-390 -710 0 -710 0 0 390 0 390 710 0 710 0 0 -390z m-1560 -200 l0 -190 -330
0 -330 0 0 190 0 190 330 0 330 0 0 -190z"/>
<path d="M450 2880 c-19 -19 -20 -33 -20 -200 0 -179 0 -181 25 -205 13 -14
34 -25 45 -25 11 0 32 11 45 25 25 24 25 26 25 205 0 167 -1 181 -20 200 -11
11 -33 20 -50 20 -17 0 -39 -9 -50 -20z"/>
<path d="M1288 2629 c-247 -33 -458 -207 -541 -448 -121 -348 70 -731 423
-852 89 -30 269 -38 360 -15 121 30 226 90 316 180 90 91 140 172 176 286 33
110 31 273 -5 385 -103 315 -404 507 -729 464z m182 -143 c278 -50 472 -314
432 -590 -23 -162 -132 -320 -270 -394 -207 -111 -464 -73 -627 92 -329 333
-104 883 370 904 11 1 54 -5 95 -12z"/>
<path d="M4030 1011 c-44 -14 -84 -38 -112 -68 -169 -180 -64 -517 162 -517
97 0 167 52 216 159 67 147 11 340 -118 406 -44 23 -112 32 -148 20z m104
-160 c32 -28 49 -74 49 -131 0 -149 -127 -210 -188 -90 -42 84 -15 201 56 237
27 14 55 9 83 -16z"/>
</g>
</svg>
