<?xml version="1.0" standalone="no"?>
<!DOCTYPE svg PUBLIC "-//W3C//DTD SVG 20010904//EN"
 "http://www.w3.org/TR/2001/REC-SVG-20010904/DTD/svg10.dtd">
<svg version="1.0" xmlns="http://www.w3.org/2000/svg"
 width="512.000000pt" height="512.000000pt" viewBox="0 0 512.000000 512.000000"
 preserveAspectRatio="xMidYMid meet">

<g transform="translate(0.000000,512.000000) scale(0.100000,-0.100000)"
fill="#000000" stroke="none">
<path d="M1345 4523 c-76 -11 -197 -48 -272 -83 -284 -133 -487 -380 -565
-686 l-23 -89 0 -1487 0 -1487 21 -28 c48 -65 137 -93 197 -62 12 6 151 139
308 295 217 216 298 289 335 306 l49 23 1205 5 c1187 6 1206 6 1275 27 216 65
347 143 490 295 121 126 202 276 247 454 23 89 23 92 23 874 0 781 0 785 -22
873 -50 195 -144 358 -284 492 -132 126 -272 207 -444 256 l-80 23 -1215 2
c-668 1 -1228 -1 -1245 -3z m2506 -349 c231 -83 408 -283 454 -516 22 -115 22
-1441 0 -1556 -46 -233 -223 -433 -454 -516 l-86 -31 -1205 -5 c-1347 -6
-1234 0 -1385 -78 -54 -29 -105 -71 -222 -186 l-153 -149 0 1222 c0 1375 -4
1306 75 1466 52 108 136 204 233 268 79 53 122 72 217 97 67 18 125 19 1255
17 l1185 -2 86 -31z"/>
<path d="M1620 3074 c-167 -72 -165 -318 2 -389 137 -57 297 46 298 193 1 150
-161 256 -300 196z"/>
<path d="M2460 3068 c-25 -14 -58 -44 -75 -67 -27 -39 -30 -50 -30 -120 0 -68
3 -82 27 -117 15 -21 44 -50 65 -64 31 -21 48 -25 113 -25 65 0 82 4 113 25
21 14 50 43 65 64 24 35 27 49 27 116 0 67 -3 81 -27 116 -44 62 -90 88 -167
92 -55 3 -74 -1 -111 -20z"/>
<path d="M3325 3073 c-165 -87 -166 -300 -1 -385 59 -30 151 -22 208 18 138
96 118 305 -34 369 -48 19 -134 19 -173 -2z"/>
</g>
</svg>
