<?xml version="1.0" standalone="no"?>
<!DOCTYPE svg PUBLIC "-//W3C//DTD SVG 20010904//EN"
 "http://www.w3.org/TR/2001/REC-SVG-20010904/DTD/svg10.dtd">
<svg version="1.0" xmlns="http://www.w3.org/2000/svg"
 width="512.000000pt" height="512.000000pt" viewBox="0 0 512.000000 512.000000"
 preserveAspectRatio="xMidYMid meet">

<g transform="translate(0.000000,512.000000) scale(0.100000,-0.100000)"
fill="#000000" stroke="none">
<path d="M660 5105 c-88 -18 -172 -49 -239 -86 -221 -124 -372 -341 -411 -591
-8 -53 -10 -571 -8 -1913 3 -1686 4 -1845 20 -1895 67 -223 176 -374 352 -489
78 -51 144 -80 251 -109 55 -16 215 -17 1935 -17 1720 0 1880 1 1935 17 107
29 173 58 251 109 178 116 292 276 352 494 16 55 17 215 17 1935 0 2049 4
1895 -55 2052 -26 69 -100 184 -164 255 -58 64 -203 163 -282 193 -160 59 6
55 -2029 57 -1522 1 -1872 -1 -1925 -12z m3741 -315 c185 -34 355 -204 389
-389 14 -74 14 -3608 0 -3682 -34 -185 -204 -355 -389 -389 -34 -6 -694 -10
-1845 -10 -1969 0 -1856 -3 -1976 61 -120 64 -226 206 -250 338 -14 74 -14
3608 0 3682 25 133 129 273 250 338 117 63 5 59 1971 60 1157 1 1815 -3 1850
-9z"/>
<path d="M3110 4068 c-97 -67 -90 -220 13 -275 26 -14 68 -18 231 -21 l198 -4
-375 -377 c-328 -329 -377 -381 -387 -418 -35 -133 102 -248 223 -187 18 9
199 183 404 387 l372 370 3 -209 c3 -200 4 -210 26 -242 31 -43 77 -65 133
-66 60 0 107 28 136 83 23 44 23 45 23 449 0 387 -1 408 -20 446 -11 23 -33
50 -48 61 -26 19 -45 20 -463 23 l-435 3 -34 -23z"/>
<path d="M2135 2334 c-16 -9 -198 -183 -402 -387 l-373 -372 0 195 c0 221 -10
260 -71 298 -78 47 -170 31 -220 -39 l-24 -34 -3 -423 c-3 -422 -3 -423 20
-463 12 -22 38 -50 58 -62 35 -22 40 -22 456 -22 l420 0 41 27 c96 63 96 208
0 267 -32 20 -48 21 -243 21 l-209 0 366 368 c201 202 376 380 387 396 30 39
30 125 1 173 -40 64 -137 91 -204 57z"/>
</g>
</svg>
