<?xml version="1.0" standalone="no"?>
<!DOCTYPE svg PUBLIC "-//W3C//DTD SVG 20010904//EN"
 "http://www.w3.org/TR/2001/REC-SVG-20010904/DTD/svg10.dtd">
<svg version="1.0" xmlns="http://www.w3.org/2000/svg"
 width="512.000000pt" height="512.000000pt" viewBox="0 0 512.000000 512.000000"
 preserveAspectRatio="xMidYMid meet">

<g transform="translate(0.000000,512.000000) scale(0.100000,-0.100000)"
fill="#000000" stroke="none">
<path d="M610 4944 c-164 -26 -176 -49 -101 -199 174 -348 434 -599 699 -676
120 -35 281 -36 395 -3 15 5 17 -5 17 -106 0 -61 -4 -110 -8 -108 -4 2 -50 24
-102 50 -152 76 -224 92 -425 92 -143 0 -182 -4 -247 -22 -300 -83 -547 -295
-687 -589 -31 -64 -33 -74 -22 -101 16 -38 57 -57 94 -43 18 7 36 30 58 73 59
117 121 203 213 293 181 178 381 255 636 242 164 -8 272 -45 422 -145 51 -34
80 -46 117 -50 68 -6 86 0 177 60 149 97 281 138 450 138 399 0 725 -263 868
-700 53 -165 70 -286 63 -470 -10 -287 -67 -452 -297 -865 -61 -109 -112 -200
-114 -202 -2 -2 -92 17 -200 42 -304 70 -383 85 -455 85 -58 0 -71 -3 -89 -23
-57 -61 -6 -127 97 -127 50 0 50 -1 46 -27 -3 -16 -14 -112 -25 -215 -22 -197
-20 -216 20 -238 31 -16 65 -12 88 13 19 20 25 49 43 218 11 107 22 199 24
205 2 7 130 -18 365 -72 199 -45 363 -84 364 -86 2 -2 0 -30 -5 -63 -14 -114
-11 -170 11 -190 27 -25 76 -23 102 2 16 17 23 42 31 117 8 77 13 96 26 96 24
0 1102 -247 1109 -254 3 -4 -7 -118 -21 -254 -15 -136 -27 -260 -27 -275 0
-33 40 -77 70 -77 12 0 34 12 49 28 26 26 28 35 55 282 15 140 30 257 32 259
2 3 39 -3 82 -13 159 -36 251 -100 308 -214 25 -50 28 -68 29 -152 0 -88 -3
-101 -33 -162 -39 -80 -111 -148 -192 -181 -53 -21 -68 -22 -479 -25 l-424 -3
7 53 c3 29 9 94 13 144 5 86 5 92 -17 112 -43 40 -102 24 -118 -30 -6 -18 -16
-88 -23 -155 l-12 -123 -370 0 -370 0 7 63 c21 195 20 202 -5 226 -17 16 -34
21 -58 19 -54 -5 -68 -34 -83 -178 l-13 -125 -177 -3 c-98 -1 -178 1 -178 5 0
5 9 82 20 173 24 199 25 249 4 278 -19 27 -72 30 -104 4 -20 -16 -24 -39 -46
-227 -13 -116 -24 -216 -24 -222 0 -18 -176 -17 -265 2 -183 38 -352 169 -434
336 -151 306 -54 645 238 838 100 65 117 94 84 139 -30 40 -71 40 -141 1 -105
-58 -202 -148 -271 -251 l-25 -36 -55 31 c-79 44 -191 128 -246 184 -26 26
-71 84 -100 128 -57 86 -83 114 -130 137 -79 39 -186 29 -257 -25 -48 -37 -77
-82 -93 -145 l-12 -45 -93 169 c-201 363 -259 497 -295 689 -23 117 -29 267
-16 375 26 209 25 196 2 219 -30 30 -84 28 -109 -4 -50 -63 -64 -422 -24 -620
46 -229 91 -336 320 -750 94 -170 170 -311 168 -312 -1 -1 -62 5 -135 13 -106
12 -143 13 -182 4 -173 -42 -245 -249 -136 -392 55 -72 96 -86 333 -114 115
-13 212 -24 215 -24 4 0 -19 -27 -51 -60 -76 -79 -100 -129 -100 -208 0 -74
19 -124 63 -170 52 -55 102 -76 182 -76 85 -1 128 19 200 94 100 104 240 185
405 236 41 13 75 22 75 21 1 -1 12 -28 25 -61 91 -228 321 -419 569 -472 102
-21 2627 -20 2720 1 184 44 339 192 386 370 72 278 -92 553 -377 631 l-57 15
80 80 c347 347 481 955 317 1434 -56 166 -116 265 -250 417 -131 149 -209 284
-255 443 -41 140 -50 196 -63 400 -11 187 -35 294 -89 410 -54 115 -108 191
-190 267 -124 115 -254 168 -411 168 -47 0 -112 -7 -144 -15 -216 -57 -412
-260 -494 -515 -34 -104 -42 -153 -52 -319 -10 -153 -28 -301 -38 -301 -2 0
-32 25 -65 56 -132 122 -267 200 -432 250 -82 25 -105 28 -260 28 -223 1 -271
-12 -527 -142 -5 -2 -8 212 -8 477 0 335 -3 488 -11 505 -23 51 -103 55 -128
7 -7 -11 -11 -85 -11 -178 l0 -158 -41 64 c-121 183 -292 305 -509 361 -113
29 -327 35 -460 14z m365 -149 c273 -48 475 -224 571 -498 15 -43 25 -80 22
-82 -13 -14 -132 -27 -198 -22 -254 20 -504 217 -684 539 l-37 67 38 4 c91 9
207 6 288 -8z m2944 -154 c156 -49 286 -188 354 -381 42 -120 47 -146 57 -314
13 -198 22 -262 61 -401 54 -192 143 -352 279 -505 160 -180 229 -313 276
-530 25 -115 25 -359 1 -485 -53 -272 -170 -498 -344 -665 -48 -47 -104 -93
-124 -104 l-35 -19 -710 162 c-390 89 -721 165 -736 169 l-28 7 66 120 c36 66
69 124 73 128 4 4 24 -16 43 -45 123 -183 337 -310 569 -339 389 -47 767 212
866 594 16 61 16 70 3 95 -21 36 -59 49 -95 31 -24 -11 -33 -27 -51 -85 -90
-298 -338 -488 -634 -487 -113 1 -197 21 -299 71 -101 50 -223 169 -273 267
l-36 70 23 45 c80 158 143 395 152 573 l6 118 36 30 c51 43 164 95 246 115 82
19 252 14 326 -10 220 -69 369 -217 444 -436 29 -87 48 -110 87 -110 33 0 78
39 78 68 0 30 -39 151 -67 207 -65 129 -188 261 -310 334 -209 123 -486 145
-713 56 -33 -13 -76 -34 -96 -46 -19 -11 -37 -20 -39 -18 -1 2 -10 43 -19 92
-23 119 -67 251 -127 377 l-50 105 20 75 c29 110 40 186 51 364 12 186 34 287
90 403 124 254 352 375 579 304z m-3062 -2946 c12 -3 36 -29 54 -58 96 -152
232 -280 394 -371 75 -42 86 -52 80 -70 -22 -77 -35 -164 -35 -246 l0 -96 -68
-17 c-156 -40 -353 -150 -454 -253 -87 -89 -141 -102 -194 -49 -18 18 -24 35
-24 65 0 37 7 48 56 101 31 32 82 78 113 101 118 88 134 118 92 169 -17 21
-39 25 -336 60 l-319 36 -28 32 c-17 19 -28 43 -28 60 0 33 33 79 67 92 16 6
122 -2 329 -26 325 -36 345 -36 365 9 17 36 5 66 -52 132 -74 84 -140 190
-146 232 -5 41 22 87 61 102 21 8 29 8 73 -5z"/>
</g>
</svg>
