<?xml version="1.0" standalone="no"?>
<!DOCTYPE svg PUBLIC "-//W3C//DTD SVG 20010904//EN"
 "http://www.w3.org/TR/2001/REC-SVG-20010904/DTD/svg10.dtd">
<svg version="1.0" xmlns="http://www.w3.org/2000/svg"
 width="512.000000pt" height="512.000000pt" viewBox="0 0 512.000000 512.000000"
 preserveAspectRatio="xMidYMid meet">

<g transform="translate(0.000000,512.000000) scale(0.100000,-0.100000)"
fill="#000000" stroke="none">
<path d="M2465 5106 c-93 -30 -165 -91 -206 -174 -23 -45 -24 -57 -27 -311 -4
-287 0 -309 49 -338 l29 -17 0 -291 0 -290 -266 -235 c-183 -162 -272 -247
-286 -275 -20 -39 -21 -49 -14 -400 8 -437 13 -502 38 -527 23 -23 69 -23 99
1 24 19 24 22 21 183 -1 89 -5 227 -8 306 l-6 142 886 0 886 0 0 -72 c0 -52
-58 -2176 -60 -2195 0 -2 -217 -3 -481 -3 l-481 0 6 188 c4 103 9 207 12 232
l5 45 117 0 c114 0 119 1 192 36 91 44 146 90 194 164 174 261 51 614 -246
706 -72 23 -193 26 -259 9 -155 -42 -282 -165 -333 -322 -5 -16 -24 -18 -205
-18 l-200 0 -3 181 -3 181 -28 24 c-34 29 -56 30 -91 3 l-26 -20 0 -185 0
-184 -183 0 c-207 0 -236 -8 -269 -72 -18 -34 -18 -50 -3 -404 20 -486 22
-511 46 -535 26 -26 81 -25 105 2 16 18 19 34 17 100 l-3 79 510 0 510 0 -4
-23 c-3 -12 -7 -101 -11 -197 -12 -359 -16 -402 -41 -427 l-23 -23 -430 0
-430 0 -25 23 c-23 20 -26 31 -32 122 -7 108 -19 139 -59 149 -32 8 -81 -16
-90 -45 -12 -37 5 -221 24 -264 20 -45 61 -89 106 -113 27 -15 119 -17 1004
-20 1078 -3 1036 -5 1123 61 50 38 103 112 118 165 6 22 27 613 50 1466 39
1410 40 1429 21 1471 -15 34 -75 92 -289 281 l-270 239 -1 290 -1 290 30 17
c57 32 62 63 58 337 -3 242 -3 247 -29 302 -36 76 -89 133 -157 166 l-57 28
-290 2 c-216 2 -300 -1 -330 -11z m612 -157 c23 -11 52 -34 64 -50 l20 -29
-380 0 c-210 0 -381 4 -381 8 0 13 63 70 90 81 14 5 138 10 284 10 244 1 262
0 303 -20z m103 -384 l0 -155 -400 0 -400 0 0 155 0 155 400 0 400 0 0 -155z
m-90 -525 l0 -220 -315 0 -315 0 0 220 0 220 315 0 315 0 0 -220z m3 -399 c5
-21 73 -88 292 -281 282 -250 286 -254 283 -289 l-3 -36 -888 -3 -888 -2 3 43
c3 43 5 45 233 247 299 264 335 299 335 327 l0 23 314 0 314 0 5 -29z m-163
-1827 c225 -122 216 -452 -16 -564 -55 -27 -157 -38 -214 -23 -29 8 -35 14
-33 34 1 13 2 86 3 161 2 115 0 142 -14 163 -27 40 -75 65 -128 65 -27 0 -48
4 -48 8 0 15 64 99 95 124 96 80 242 93 355 32z m-414 -521 c-4 -115 -9 -234
-13 -265 l-6 -58 -512 0 -512 0 -7 208 c-4 114 -9 233 -13 265 l-6 57 538 0
538 0 -7 -207z m1080 -846 c3 -8 1 -55 -4 -104 -11 -106 -32 -145 -96 -174
-38 -17 -73 -19 -464 -19 l-424 0 6 28 c3 15 8 84 11 155 l7 127 479 0 c392 0
481 -2 485 -13z"/>
<path d="M2576 2674 c-204 -31 -441 -115 -479 -168 -38 -54 -30 -102 46 -258
93 -195 115 -205 288 -144 147 53 250 69 404 63 137 -5 194 -17 332 -69 141
-52 169 -36 267 161 80 159 86 201 34 255 -31 32 -159 91 -241 111 -58 15
-110 -51 -83 -104 12 -21 34 -35 105 -61 50 -19 91 -38 91 -42 0 -10 -89 -188
-93 -188 -2 0 -39 13 -83 29 -116 43 -231 62 -369 62 -136 0 -246 -18 -375
-62 -49 -16 -91 -29 -95 -29 -11 0 -95 184 -87 192 12 12 213 76 292 93 41 9
148 19 238 22 158 6 163 6 182 31 27 33 25 68 -5 97 -23 24 -29 25 -152 24
-70 -1 -168 -7 -217 -15z"/>
</g>
</svg>
