<?xml version="1.0" standalone="no"?>
<!DOCTYPE svg PUBLIC "-//W3C//DTD SVG 20010904//EN" "http://www.w3.org/TR/2001/REC-SVG-20010904/DTD/svg10.dtd">
<svg version="1.0" xmlns="http://www.w3.org/2000/svg" width="512.000000pt" height="512.000000pt"
    viewBox="0 0 512.000000 512.000000" preserveAspectRatio="xMidYMid meet">

    <g transform="translate(0.000000,512.000000) scale(0.100000,-0.100000)" fill="#000000" stroke="none">
        <path d="M4072 5100 c-40 -11 -105 -36 -145 -56 -68 -35 -176 -141 -1820
-1783 -962 -960 -1757 -1758 -1768 -1773 -19 -26 -339 -1283 -339 -1331 0 -13
10 -43 22 -67 25 -50 84 -90 132 -90 29 0 1260 302 1306 320 14 6 816 801
1782 1768 1356 1358 1763 1771 1791 1817 82 139 107 303 68 454 -37 147 -68
191 -315 437 -199 199 -229 225 -296 258 -135 66 -281 82 -418 46z m264 -335
c34 -17 105 -81 231 -207 204 -206 226 -238 226 -343 -1 -108 -18 -133 -266
-382 l-222 -223 -345 345 -345 345 235 234 c255 253 256 253 371 255 51 1 76
-4 115 -24z m-1603 -2727 l-1343 -1343 -345 345 -345 345 1342 1342 1343 1343
345 -345 345 -345 -1342 -1342z m-1918 -1228 c137 -137 247 -251 245 -253 -9
-7 -663 -168 -667 -164 -5 6 160 667 167 667 3 0 117 -112 255 -250z" />
    </g>
</svg>