<?xml version="1.0" standalone="no"?>
<!DOCTYPE svg PUBLIC "-//W3C//DTD SVG 20010904//EN"
 "http://www.w3.org/TR/2001/REC-SVG-20010904/DTD/svg10.dtd">
<svg version="1.0" xmlns="http://www.w3.org/2000/svg"
 width="512.000000pt" height="512.000000pt" viewBox="0 0 512.000000 512.000000"
 preserveAspectRatio="xMidYMid meet">

<g transform="translate(0.000000,512.000000) scale(0.100000,-0.100000)"
fill="#000000" stroke="none">
<path d="M1204 4581 c-215 -34 -384 -188 -439 -397 -13 -51 -15 -261 -15
-1624 0 -1363 2 -1573 15 -1624 47 -180 183 -323 360 -379 66 -21 88 -22 375
-22 304 0 305 0 376 26 167 61 283 180 340 349 18 53 19 118 19 1650 0 1532
-1 1597 -19 1650 -57 170 -174 289 -340 348 -69 25 -80 26 -346 28 -151 1
-298 -1 -326 -5z m620 -232 c70 -26 139 -92 174 -167 l27 -57 0 -1565 0 -1565
-27 -57 c-35 -76 -104 -141 -175 -168 -54 -20 -72 -21 -347 -18 -281 3 -292 4
-334 26 -66 35 -119 88 -149 150 l-28 57 -3 1555 c-3 1717 -6 1613 61 1702 36
48 112 103 161 117 17 5 156 10 308 10 257 1 281 -1 332 -20z"/>
<path d="M3328 4580 c-191 -30 -355 -169 -420 -359 l-23 -66 0 -1595 0 -1595
23 -68 c46 -133 144 -246 266 -305 113 -55 127 -57 451 -57 282 0 304 1 370
22 176 55 313 200 360 380 23 86 23 3160 0 3246 -46 177 -182 323 -354 379
-60 19 -91 21 -341 24 -151 1 -301 -1 -332 -6z m650 -238 c66 -35 119 -88 149
-150 l28 -57 0 -1575 0 -1575 -28 -57 c-30 -62 -83 -115 -149 -150 -42 -23
-49 -23 -348 -23 -303 0 -305 0 -354 24 -66 33 -122 91 -155 160 l-26 56 0
1566 0 1566 35 69 c25 50 49 79 85 106 87 66 96 67 425 65 286 -2 296 -3 338
-25z"/>
</g>
</svg>
