<?xml version="1.0" standalone="no"?>
<!DOCTYPE svg PUBLIC "-//W3C//DTD SVG 20010904//EN" "http://www.w3.org/TR/2001/REC-SVG-20010904/DTD/svg10.dtd">
<svg version="1.0" xmlns="http://www.w3.org/2000/svg" width="512.000000pt" height="512.000000pt"
    viewBox="0 0 512.000000 512.000000" preserveAspectRatio="xMidYMid meet">

    <g transform="translate(0.000000,512.000000) scale(0.100000,-0.100000)" fill="#000000" stroke="none">
        <path d="M1690 4822 c-62 -26 -614 -345 -661 -383 -45 -35 -96 -133 -105 -200
-10 -77 11 -142 93 -286 l76 -134 -16 -32 c-9 -18 -48 -75 -87 -127 -69 -94
-166 -270 -210 -383 -12 -31 -28 -61 -34 -65 -6 -4 -87 -9 -181 -12 -160 -5
-173 -7 -227 -33 -65 -32 -121 -89 -152 -156 -20 -45 -21 -58 -21 -451 l0
-405 28 -57 c32 -65 90 -121 156 -151 39 -18 71 -22 216 -27 94 -3 175 -8 181
-12 6 -4 22 -34 34 -65 56 -140 157 -318 245 -432 78 -103 79 -91 -10 -246
-94 -166 -109 -226 -81 -325 21 -77 63 -141 119 -178 75 -51 609 -355 646
-368 56 -20 152 -17 215 7 77 28 130 85 207 219 85 147 94 154 179 138 84 -15
436 -15 520 0 85 16 94 9 179 -138 77 -134 130 -191 207 -219 63 -24 159 -27
215 -7 43 15 597 333 658 376 48 35 96 115 113 188 19 88 1 151 -88 308 l-77
135 16 32 c9 18 48 75 87 127 69 94 166 270 210 383 12 31 28 61 34 65 6 4 88
9 181 12 160 5 173 7 227 33 65 32 121 89 152 156 20 45 21 58 21 451 0 393
-1 406 -21 451 -31 67 -87 124 -152 156 -54 26 -67 28 -227 33 -93 3 -175 8
-181 12 -6 4 -22 34 -34 65 -56 140 -157 318 -245 432 -78 103 -79 91 9 246
89 156 107 219 88 307 -16 68 -63 150 -104 182 -54 40 -609 358 -663 379 -38
15 -67 18 -121 15 -137 -9 -203 -61 -309 -245 -40 -69 -79 -126 -92 -132 -14
-6 -44 -6 -90 1 -37 6 -151 11 -253 11 -102 0 -216 -5 -253 -11 -46 -7 -76 -7
-90 -1 -13 6 -52 63 -92 132 -78 136 -119 183 -190 217 -67 32 -182 38 -245
12z m171 -413 c85 -148 124 -190 213 -235 87 -43 147 -47 346 -25 127 14 232
11 383 -10 59 -9 93 -8 140 1 140 27 221 97 312 267 33 62 62 113 65 113 3 0
130 -71 282 -158 l276 -158 -60 -104 c-98 -170 -120 -249 -98 -357 16 -74 43
-124 130 -243 67 -91 168 -274 204 -370 40 -107 134 -195 245 -230 50 -16 91
-20 202 -20 l139 0 0 -319 0 -319 -157 -4 c-152 -3 -160 -4 -223 -34 -116 -55
-163 -109 -225 -259 -49 -119 -118 -239 -204 -354 -90 -120 -114 -180 -114
-286 1 -98 14 -138 95 -270 33 -55 63 -103 65 -107 3 -5 -537 -328 -550 -328
-2 0 -33 51 -68 112 -98 172 -177 240 -312 268 -47 9 -76 9 -145 -2 -109 -16
-382 -16 -484 1 -90 14 -161 5 -245 -33 -76 -36 -139 -105 -207 -232 -32 -60
-60 -111 -62 -113 -3 -3 -433 237 -536 299 l-26 16 69 119 c87 152 108 226 91
327 -14 83 -40 133 -132 258 -67 92 -170 278 -204 370 -40 107 -134 195 -245
230 -50 16 -91 20 -202 20 l-139 0 0 320 0 320 140 0 c161 0 232 17 313 76 65
47 102 103 163 242 56 132 106 215 199 339 84 111 108 174 108 278 -1 98 -15
138 -93 265 -32 53 -60 102 -62 108 -2 10 523 331 543 332 4 0 35 -50 70 -111z" />
        <path d="M2417 3509 c-128 -19 -291 -83 -406 -161 -82 -55 -222 -207 -272
-293 -103 -179 -134 -295 -133 -495 1 -205 39 -345 142 -510 58 -94 195 -233
288 -293 164 -106 324 -152 529 -152 195 1 313 33 490 134 109 62 263 217 326
326 102 177 133 294 133 495 0 201 -32 321 -133 495 -62 107 -208 254 -320
323 -189 116 -423 163 -644 131z m277 -324 c289 -61 506 -329 506 -625 0 -297
-218 -565 -510 -626 -94 -20 -229 -14 -320 15 -312 98 -503 425 -435 745 72
341 416 564 759 491z"/>
    </g>
</svg>
