<?xml version="1.0" standalone="no"?>
<!DOCTYPE svg PUBLIC "-//W3C//DTD SVG 20010904//EN"
 "http://www.w3.org/TR/2001/REC-SVG-20010904/DTD/svg10.dtd">
<svg version="1.0" xmlns="http://www.w3.org/2000/svg"
 width="512.000000pt" height="512.000000pt" viewBox="0 0 512.000000 512.000000"
 preserveAspectRatio="xMidYMid meet">

<g transform="translate(0.000000,512.000000) scale(0.100000,-0.100000)"
fill="#000000" stroke="none">
<path d="M1321 5103 c-58 -21 -136 -99 -150 -149 -15 -55 -15 -4733 0 -4788 6
-23 29 -57 58 -86 84 -84 200 -102 295 -46 22 14 571 555 1218 1203 918 919
1182 1188 1197 1223 13 28 21 66 21 100 0 34 -8 72 -21 100 -15 35 -279 304
-1197 1223 -647 648 -1196 1190 -1219 1204 -55 32 -140 39 -202 16z"/>
</g>
</svg>
