<?xml version="1.0" standalone="no"?>
<!DOCTYPE svg PUBLIC "-//W3C//DTD SVG 20010904//EN"
 "http://www.w3.org/TR/2001/REC-SVG-20010904/DTD/svg10.dtd">
<svg version="1.0" xmlns="http://www.w3.org/2000/svg"
 width="512.000000pt" height="512.000000pt" viewBox="0 0 512.000000 512.000000"
 preserveAspectRatio="xMidYMid meet">

<g transform="translate(0.000000,512.000000) scale(0.100000,-0.100000)"
fill="#000000" stroke="none">
<path d="M3555 4570 c-297 -78 -521 -314 -581 -614 -24 -115 -15 -284 20 -391
89 -274 320 -482 598 -539 269 -55 543 33 733 235 157 168 221 342 212 574 -3
100 -9 135 -35 210 -89 266 -293 457 -557 525 -104 27 -290 27 -390 0z"/>
<path d="M1552 4340 c-222 -31 -409 -125 -567 -284 -182 -183 -277 -413 -278
-676 -1 -275 99 -509 300 -701 196 -187 442 -279 713 -266 149 7 248 34 385
102 195 97 332 234 430 430 82 163 99 235 99 430 0 136 -3 173 -23 245 -95
351 -368 619 -716 700 -96 23 -256 32 -343 20z"/>
<path d="M3095 2813 c-249 -53 -472 -216 -594 -434 l-31 -55 95 -27 c226 -63
404 -166 562 -323 118 -118 230 -293 283 -442 l23 -62 746 2 c715 3 748 4 785
22 53 27 104 80 130 135 19 42 21 63 20 236 0 161 -4 204 -23 280 -83 340
-352 599 -693 669 -111 23 -1196 22 -1303 -1z"/>
<path d="M919 2180 c-236 -41 -424 -141 -599 -319 -158 -160 -247 -325 -292
-541 -17 -77 -21 -136 -22 -315 l-1 -220 28 -61 c35 -76 94 -135 172 -171 l60
-28 1360 -3 c918 -2 1382 1 1428 8 119 18 205 79 254 178 l28 57 -1 255 c0
244 -1 259 -27 355 -32 119 -117 295 -186 386 -145 191 -358 332 -601 400
l-85 24 -735 1 c-404 1 -756 -2 -781 -6z"/>
</g>
</svg>
