<?xml version="1.0" standalone="no"?>
<!DOCTYPE svg PUBLIC "-//W3C//DTD SVG 20010904//EN"
 "http://www.w3.org/TR/2001/REC-SVG-20010904/DTD/svg10.dtd">
<svg version="1.0" xmlns="http://www.w3.org/2000/svg"
 width="512.000000pt" height="512.000000pt" viewBox="0 0 512.000000 512.000000"
 preserveAspectRatio="xMidYMid meet">

<g transform="translate(0.000000,512.000000) scale(0.100000,-0.100000)"
fill="#000000" stroke="none">
<path d="M660 5105 c-88 -18 -172 -49 -239 -86 -221 -124 -372 -341 -411 -591
-8 -53 -10 -571 -8 -1913 3 -1686 4 -1845 20 -1895 67 -223 176 -374 352 -489
78 -51 144 -80 251 -109 55 -16 215 -17 1935 -17 1720 0 1880 1 1935 17 107
29 173 58 251 109 178 116 292 276 352 494 16 55 17 215 17 1935 0 2049 4
1895 -55 2052 -26 69 -100 184 -164 255 -58 64 -203 163 -282 193 -160 59 6
55 -2029 57 -1522 1 -1872 -1 -1925 -12z m3741 -315 c185 -34 355 -204 389
-389 14 -74 14 -3608 0 -3682 -34 -185 -204 -355 -389 -389 -34 -6 -694 -10
-1845 -10 -1969 0 -1856 -3 -1976 61 -120 64 -226 206 -250 338 -14 74 -14
3608 0 3682 25 133 129 273 250 338 117 63 5 59 1971 60 1157 1 1815 -3 1850
-9z"/>
<path d="M3880 4079 c-14 -6 -204 -188 -422 -406 l-397 -396 -3 211 c-3 194
-5 213 -24 239 -24 33 -97 73 -134 73 -50 0 -113 -42 -138 -90 -23 -45 -23
-45 -20 -462 3 -405 4 -417 24 -445 11 -15 36 -38 54 -50 33 -23 34 -23 459
-23 407 0 427 1 459 20 101 62 97 213 -8 274 -32 19 -55 21 -234 24 l-199 4
390 391 c215 216 398 406 407 424 34 68 7 162 -57 202 -37 23 -112 28 -157 10z"/>
<path d="M1409 2366 c-96 -66 -88 -218 14 -274 27 -14 65 -18 231 -20 l199 -4
-396 -396 c-334 -335 -397 -403 -407 -439 -18 -59 -6 -108 39 -155 32 -35 45
-41 89 -46 28 -2 64 -1 79 2 19 5 160 139 431 409 l402 401 0 -197 c0 -179 2
-202 20 -238 53 -103 196 -115 268 -21 l27 35 3 420 c3 405 2 421 -18 461 -42
84 -19 81 -510 84 l-435 2 -36 -24z"/>
</g>
</svg>
