<?xml version="1.0" standalone="no"?>
<!DOCTYPE svg PUBLIC "-//W3C//DTD SVG 20010904//EN"
 "http://www.w3.org/TR/2001/REC-SVG-20010904/DTD/svg10.dtd">
<svg version="1.0" xmlns="http://www.w3.org/2000/svg"
 width="512.000000pt" height="512.000000pt" viewBox="0 0 512.000000 512.000000"
 preserveAspectRatio="xMidYMid meet">

<g transform="translate(0.000000,512.000000) scale(0.100000,-0.100000)"
fill="#000000" stroke="none">
<path d="M2375 5103 c-222 -18 -501 -78 -690 -147 -55 -21 -167 -70 -250 -111
-267 -131 -441 -253 -654 -460 -137 -133 -251 -265 -251 -290 0 -29 23 -64 49
-75 39 -16 70 -1 116 56 21 27 84 96 139 153 328 337 753 573 1216 674 193 43
290 52 530 51 195 -1 244 -5 370 -27 347 -62 660 -186 942 -374 645 -430 1031
-1110 1074 -1890 10 -180 -5 -195 -206 -207 -193 -11 -385 -43 -562 -95 l-68
-20 0 80 c0 115 -42 186 -132 223 -56 24 -103 19 -213 -19 -415 -146 -987
-282 -1467 -349 -278 -39 -734 -76 -944 -76 -140 0 -202 -29 -246 -113 -44
-87 -18 -203 92 -401 139 -251 351 -453 618 -589 192 -98 366 -147 596 -168
l125 -12 -21 -51 c-51 -125 -110 -326 -138 -465 -16 -83 -35 -160 -42 -171
-17 -27 -87 -60 -129 -62 -19 0 -74 7 -123 16 -732 139 -1369 623 -1706 1296
-112 225 -197 509 -231 780 -17 135 -17 445 0 580 35 285 130 585 260 830 28
52 51 107 51 121 0 60 -86 91 -127 47 -47 -51 -171 -328 -229 -510 -84 -262
-117 -484 -118 -773 0 -215 10 -321 46 -505 144 -739 622 -1386 1293 -1752
241 -132 519 -226 807 -274 91 -16 119 -17 187 -7 93 14 164 41 241 94 79 54
1871 1649 1890 1682 13 24 13 30 0 54 -21 38 -55 54 -89 42 -14 -6 -435 -374
-936 -819 -500 -445 -911 -805 -913 -800 -2 5 4 47 13 92 85 425 271 804 556
1130 403 461 962 747 1580 808 175 18 174 20 47 -90 -60 -52 -116 -107 -123
-122 -31 -57 31 -126 90 -100 27 12 289 245 327 291 83 98 108 218 90 444 -28
367 -116 683 -279 1000 -436 847 -1344 1397 -2287 1385 -72 -1 -149 -3 -171
-5z m1583 -2609 c20 -14 22 -23 22 -110 l0 -95 -62 -27 c-194 -81 -458 -239
-613 -367 -38 -31 -80 -61 -93 -66 -81 -31 -450 -111 -641 -139 -293 -43 -733
-67 -995 -55 l-156 8 -29 46 c-41 65 -99 183 -121 247 -33 94 -12 113 120 114
124 0 384 16 585 35 605 59 1201 182 1735 358 107 36 202 65 210 66 9 1 26 -6
38 -15z m-995 -931 c-106 -124 -215 -282 -307 -445 -27 -48 -27 -48 -80 -48
-299 0 -606 95 -835 259 -67 48 -181 145 -181 155 0 2 55 1 123 -2 144 -5 516
12 707 34 151 17 391 55 520 83 47 11 89 19 93 20 5 1 -13 -25 -40 -56z"/>
<path d="M3420 3647 c-126 -44 -213 -130 -253 -251 -20 -57 -22 -164 -6 -200
16 -35 63 -50 99 -31 35 18 40 32 40 108 1 147 106 246 250 235 94 -7 174 -73
199 -166 13 -44 48 -82 76 -82 12 0 35 10 50 22 24 19 27 26 23 68 -10 104
-96 218 -205 272 -56 27 -78 32 -152 35 -49 1 -101 -3 -121 -10z"/>
<path d="M1320 3276 c-185 -42 -310 -207 -298 -394 5 -72 27 -102 77 -102 48
0 71 36 71 111 0 275 354 340 449 83 25 -68 42 -84 86 -84 57 0 80 45 61 117
-19 70 -42 110 -97 165 -91 91 -228 132 -349 104z"/>
</g>
</svg>
