<?xml version="1.0" standalone="no"?>
<!DOCTYPE svg PUBLIC "-//W3C//DTD SVG 20010904//EN"
 "http://www.w3.org/TR/2001/REC-SVG-20010904/DTD/svg10.dtd">
<svg version="1.0" xmlns="http://www.w3.org/2000/svg"
 width="512.000000pt" height="512.000000pt" viewBox="0 0 512.000000 512.000000"
 preserveAspectRatio="xMidYMid meet">

<g transform="translate(0.000000,512.000000) scale(0.100000,-0.100000)"
fill="#000000" stroke="none">
<path d="M395 4759 c-138 -28 -288 -146 -344 -271 -37 -81 -55 -173 -49 -246
3 -31 99 -423 212 -869 l207 -813 -207 -812 c-113 -447 -209 -839 -212 -870
-21 -238 164 -474 408 -518 77 -14 167 -7 241 19 126 44 4189 1735 4238 1764
136 81 231 253 231 417 0 164 -95 336 -231 417 -49 29 -4110 1719 -4239 1765
-66 23 -186 31 -255 17z m187 -313 c122 -46 4123 -1708 4150 -1724 65 -38 100
-131 80 -208 -17 -63 -48 -101 -107 -129 -91 -44 -4129 -1716 -4171 -1727
-122 -33 -250 87 -230 215 4 22 92 374 196 782 105 409 190 746 190 749 0 3
343 6 763 6 705 0 765 1 797 18 107 53 107 211 0 264 -32 17 -92 18 -797 18
-420 0 -763 3 -763 6 0 3 -85 340 -190 749 -104 408 -192 760 -196 782 -17
110 73 218 188 222 15 1 56 -10 90 -23z"/>
</g>
</svg>
